# xmcd CD database file generated by OrangeCD 5.2
#
# Track frame offsets:
#	150
#	9578
#	25293
#	39884
#	50514
#	66048
#	77155
#	89492
#	104434
#	117294
#	126629
#	138311
#	150148
#	161489
#	183200
#	198463
#	210655
#
# Disc length: 2929 seconds
#
# Revision: 0
# Processed by: cddbd v1.5.1PL0 Copyright (c) Steve Scherf et al.
# Submitted via: OrangeCD 5.2
#
DISCID=df0b6f11
DTITLE=The Spurs - Go, Boy, Go!
DYEAR=2000
DGENRE=Country
TTITLE0=Go, Boy, Go!
TTITLE1=Stop and Let Me Drink About It
TTITLE2=Hillcrest
TTITLE3=Steuben Street
TTITLE4=Alcohol Of Fame
TTITLE5=Jumpin' At The Woodside
TTITLE6=Hot Rod Mama
TTITLE7=So I Can Picture You
TTITLE8=Moon Island March
TTITLE9=Well Oh Well
TTITLE10=Slow Down Brother
TTITLE11=What's This Thing Called Love
TTITLE12=Yackety Yalk
TTITLE13=Crankie and Blue
TTITLE14=Beer Hill Bounce
TTITLE15=Drinkin' All My Troubles Away
TTITLE16=Duane's World
EXTD=
EXTT0=
EXTT1=
EXTT2=
EXTT3=
EXTT4=
EXTT5=
EXTT6=
EXTT7=
EXTT8=
EXTT9=
EXTT10=
EXTT11=
EXTT12=
EXTT13=
EXTT14=
EXTT15=
EXTT16=
PLAYORDER=
